<svg width="16" height="16" viewBox="0 0 16 16" fill="none" xmlns="http://www.w3.org/2000/svg">
<g clip-path="url(#clip0_1_107)">
<path d="M8 10.1333C9.17821 10.1333 10.1333 9.17821 10.1333 8C10.1333 6.82179 9.17821 5.86667 8 5.86667C6.82179 5.86667 5.86667 6.82179 5.86667 8C5.86667 9.17821 6.82179 10.1333 8 10.1333Z" fill="white"/>
<path d="M6.00001 1.33333L4.78001 2.66667H2.66668C1.93334 2.66667 1.33334 3.26667 1.33334 4V12C1.33334 12.7333 1.93334 13.3333 2.66668 13.3333H13.3333C14.0667 13.3333 14.6667 12.7333 14.6667 12V4C14.6667 3.26667 14.0667 2.66667 13.3333 2.66667H11.22L10 1.33333H6.00001ZM8.00001 11.3333C6.16001 11.3333 4.66668 9.84 4.66668 8C4.66668 6.16 6.16001 4.66667 8.00001 4.66667C9.84001 4.66667 11.3333 6.16 11.3333 8C11.3333 9.84 9.84001 11.3333 8.00001 11.3333Z" fill="white"/>
</g>
<defs>
<clipPath id="clip0_1_107">
<rect width="16" height="16" fill="white"/>
</clipPath>
</defs>
</svg>
